<svg xmlns="http://www.w3.org/2000/svg" width="16" height="16" fill="none"
     viewBox="0 0 24 24">
<path stroke-linejoin="round" stroke="#c9473d" stroke-linecap="round" stroke-width="2" d="M3 6h18m-2 0v14c0 1-1 2-2 2H7c-1 0-2-1-2-2V6m3 0V4c0-1 1-2 2-2h4c1 0 2 1 2 2v2m-6 5v6m4-6v6"/>
<path fill="#dba049" d="M16.227 23.073a1.56 1.56 0 01-1.131-.48l-4.785-4.961c-.698-.724-.849-.101-.706-.991a.548.548 0 01.504-.333h2.653c.016-.136.022-.319.022-.539V10.49a1.586 1.586 0 011.358-1.572h3.68c.885 0 1.589.8 1.589 1.589v4.17c0 .221.01.413.024.539h2.623c.224 0 .424.134.513.338.12.291.051.581-.682 1.337l-4.784 4.961c-.297.313-.699.48-1.132.48z"/>
</svg>
